<?xml version="1.0" encoding="utf-8"?>
<!-- Generator: Adobe Illustrator 18.1.1, SVG Export Plug-In . SVG Version: 6.00 Build 0)  -->
<svg version="1.1" id="Layer_1" xmlns="http://www.w3.org/2000/svg" xmlns:xlink="http://www.w3.org/1999/xlink" x="0px" y="0px"
	 viewBox="0 0 150 35" enable-background="new 0 0 150 35" xml:space="preserve">
<g>
	<path fill="#58595B" d="M46,2.7c0,1.1-1.4,3.3-4.1,6.5c-2.8,3.2-5.4,5.7-8,7.6c-2,4.3-4,7.5-6.1,9.5c-2.1,2-4.9,3.4-8.5,4.4
		c6.3,1.7,10,2.6,11.3,2.9c1.2,0.3,2.4,0.4,3.6,0.4c1.6,0,3.1-0.6,4.4-1.8c0.1-0.1,0.2-0.1,0.3-0.1c0.1,0,0.1,0.1,0.1,0.1
		c0,0.3-0.4,0.7-1.3,1.3c-1.5,1.1-3.8,1.6-6.7,1.6c-2.2,0-4.2-0.2-6.2-0.6c-2-0.4-5.1-1.3-9.1-2.6c-2.6,0.5-5.3,0.8-8.1,0.8
		c-4.9,0-7.4-0.8-7.4-2.3c0-1.4,1.9-2.1,5.7-2.1c2.9,0,7.3,0.8,13.1,2.3c1.7-0.7,3.3-1.7,4.6-3c1.3-1.3,3-3.5,5.1-6.6
		C23.8,25,19.4,27,15.3,27c-2.8,0-5-0.8-6.6-2.5c-1.6-1.6-2.5-3.9-2.5-6.6c0-4.3,2-8.3,6.1-12.2c4-3.8,8.3-5.7,12.8-5.7
		c2.1,0,3.7,0.5,5,1.6C31.3,2.7,32,4.1,32,6c0,3.2-1.5,6.6-4.5,10c-3,3.5-6,5.2-8.8,5.2c-1.2,0-2.2-0.4-3-1.1
		c-0.8-0.8-1.2-1.7-1.2-2.8c0-0.9,0.3-1.6,0.8-2.2c0.5-0.6,1.2-0.9,1.9-0.9c1,0,1.5,0.5,1.5,1.4c0,0.5-0.2,1-0.6,1.4
		c-0.4,0.4-0.8,0.6-1.3,0.6c-0.8,0-1.1-0.4-1.1-1.1c0-0.5,0-0.7-0.2-0.7c-0.3,0-0.5,0.5-0.5,1.5c0,1,0.4,1.8,1.1,2.5
		c0.7,0.7,1.7,1,2.8,1c2.6,0,5.4-1.7,8.3-5.1C30,12.2,31.5,9,31.5,6c0-1.6-0.6-3-1.7-4c-1.1-1-2.5-1.6-4.3-1.6
		c-4.2,0-8.2,2.1-12,6.3c-3.8,4.2-5.7,8.5-5.7,13.1c0,2.1,0.7,3.8,2,5c1.4,1.2,3.2,1.8,5.6,1.8c2,0,4.1-0.5,6.1-1.5
		c2-1,4.5-2.8,7.5-5.3c2.5-4.1,4.3-7,5.4-8.6c1.1-1.5,2.4-3.1,3.9-4.7c2.9-3.1,5.1-4.6,6.7-4.6C45.7,1.9,46,2.2,46,2.7z M14.8,31.6
		C9.2,29.9,5.5,29,3.5,29c-2.1,0-3.1,0.5-3.1,1.4c0,1.2,2.4,1.8,7.3,1.8C10.3,32.2,12.6,32,14.8,31.6z M45.6,2.7
		c0-0.3-0.2-0.5-0.6-0.5c-1.2,0-2.8,1.2-4.8,3.6c-1.8,2.1-3.8,5.6-6.1,10.3c2.7-2.2,5.3-4.7,7.7-7.6C44.4,5.6,45.6,3.7,45.6,2.7z"/>
	<path fill="#58595B" d="M44,20.6v0.1c-0.3,0-0.5,0.1-0.7,0.3c-0.2,0.2-0.4,0.4-0.5,0.6c-0.1,0.3-0.3,0.6-0.5,1c0,0-0.1,0.1-0.1,0.2
		l-3.3,9.5h-0.1L34.9,22c0,0,0-0.1,0-0.1c-0.2-0.4-0.3-0.8-0.6-1c-0.2-0.2-0.6-0.3-0.9-0.3v-0.1h3.8v0.1c-0.3,0-0.6,0.1-0.8,0.2
		c-0.2,0.1-0.3,0.3-0.3,0.7c0,0.1,0,0.3,0.1,0.6c0,0,0,0.1,0,0.1c0,0,0,0.1,0,0.1l3,8h0l2.6-7.5c0.2-0.5,0.3-0.9,0.3-1.2
		c0-0.4-0.1-0.7-0.3-0.8c-0.2-0.1-0.4-0.2-0.8-0.2v-0.1H44z"/>
	<path fill="#58595B" d="M54.8,23.1h-0.1c-0.1-0.6-0.4-1-0.8-1.4c-0.4-0.4-0.9-0.7-1.5-0.9c-0.6-0.2-1.1-0.3-1.6-0.3
		c-0.7,0-1.3,0.1-1.9,0.4c-0.6,0.3-1.1,0.7-1.5,1.2c-0.4,0.5-0.7,1.1-1,1.8c-0.2,0.7-0.3,1.5-0.3,2.3c0,0.8,0.1,1.6,0.3,2.2
		c0.2,0.7,0.6,1.3,1,1.8c0.4,0.5,0.9,0.9,1.5,1.1c0.6,0.3,1.2,0.4,1.9,0.4c0.6,0,1.2-0.1,1.9-0.4c0.7-0.2,1.3-0.6,1.9-1.2v0.4
		c-0.7,0.5-1.3,0.9-1.9,1.2c-0.6,0.2-1.3,0.4-2.1,0.4c-0.9,0-1.7-0.2-2.5-0.5c-0.7-0.3-1.4-0.8-1.9-1.3c-0.5-0.6-0.9-1.2-1.2-1.9
		c-0.3-0.7-0.4-1.4-0.4-2.2c0-1.1,0.3-2.2,0.8-3.1c0.5-1,1.3-1.7,2.2-2.3c0.9-0.6,2-0.8,3.1-0.8c0.7,0,1.4,0.1,2.2,0.3l0.8,0.2
		c0.2,0,0.3,0,0.4,0c0.2,0,0.3,0,0.4-0.1c0.1-0.1,0.1-0.2,0.2-0.3h0.1L54.8,23.1z"/>
	<path fill="#58595B" d="M60.7,15.6c0.1-0.5,0.2-1.3,0.2-1.6c0-0.8-1.9-0.2-1.9-0.7c0-0.6,1-0.3,2.9-0.8c0.3-0.1,0.5-0.1,0.7-0.1
		c0.2,0,0.3,0.1,0.3,0.2c0,0.1-0.5,2.5-0.6,3.5L60.6,29c-0.1,0.4-0.1,1-0.1,1.2c0,0.4,0.1,0.9,0.5,0.9c0.9,0,1.9-2,2.3-2
		c0.2,0,0.3,0.1,0.3,0.3c0,0.6-1.7,3.3-3.7,3.3c-0.8,0-1.1-0.9-1.1-1.8c0-1,0.2-2,0.2-2.4L60.7,15.6z"/>
	<path fill="#58595B" d="M64.1,28.2c0-3.4,2.3-7.4,6.1-7.4c2.9,0,4.5,2.1,4.5,4.9c0,3.5-2.3,7.3-6.2,7.3
		C65.7,32.9,64.1,30.9,64.1,28.2z M68.5,32.3c3.5,0,4.4-4.6,4.4-7.3c0-1.9-0.5-3.6-2.7-3.6c-3.3,0-4.2,4.5-4.2,7
		C66,30.1,66.3,32.3,68.5,32.3z"/>
	<path fill="#58595B" d="M85.6,24.1c0-1.3-0.5-1.4-0.5-2.4c0-0.8,0.4-1,0.7-1c0.2,0,1,0.1,1,1.8c0,5.7-4.5,10.4-6.6,10.4
		c-1.2,0-1.5-2.7-1.5-3.5c0-0.6-0.1-0.8-0.7-0.9c-1.4-0.2-1.6-1.4-1.6-2.7c0-3.3,2.1-5.1,3.3-5.1c0.5,0,1.2,0.3,1.2,1.8
		c0,1.9-0.4,4.5-0.4,6.6c0,0.6-0.2,2,1.3,2C82.7,31.1,85.6,28,85.6,24.1z M76.9,26.2c0,0.8,0.3,1.7,1.2,1.7c0.2,0,0.6-0.1,0.6-0.5
		c0-1.2,0.4-2.7,0.4-3.6c0-0.6-0.1-0.8-0.4-0.8C78.2,23,76.9,24.2,76.9,26.2z"/>
	<path fill="#58595B" d="M94.3,20.8c1,0,2.4,0.4,2.4,2.3c0,2.9-4.2,4-6.3,4c-0.7,0-0.8,0-0.8,0.7c0,2.9,1.4,3.8,3.5,3.8
		c2.2,0,2.7-1.2,3.3-1.2c0.2,0,0.3,0.1,0.3,0.2c0,0.4-2.1,2.4-5,2.4c-2.4,0-3.8-1.7-3.8-4.1C87.9,24.7,91.3,20.8,94.3,20.8z
		 M89.8,26.2c0,0.1,0.2,0.2,0.6,0.2c1.5,0,4.6-1.1,4.6-3.4c0-0.9-0.5-1.4-1.4-1.4C91.4,21.6,89.8,25.3,89.8,26.2z"/>
	<path fill="#58595B" d="M114.5,30.4c0,0.7,0.1,0.8,0.4,0.8c0.9,0,1.5-1.5,1.9-1.5c0.1,0,0.3,0,0.3,0.2c0,0.6-1.7,2.9-3.2,2.9
		c-0.7,0-1.1-0.3-1.1-1.8c0-1,0.6-6.4,0.6-6.9c0-1.1-0.2-2-1.5-2c-2.2,0-3.1,3.9-3.3,5.5l-0.7,4.2c-0.1,0.5-0.1,0.8-0.4,0.8h-1
		c-0.3,0-0.5,0-0.5-0.4c0-0.8,1.2-7,1.2-7.9c0-1-0.2-2.3-1.8-2.3c-2.2,0-3.1,3.9-3.3,5.5l-0.7,4.2c-0.1,0.5-0.1,0.8-0.4,0.8h-1
		c-0.3,0-0.5,0-0.5-0.4c0-0.8,1.2-7,1.2-7.9c0-1.1-0.1-1.7-0.6-1.7c-1.2,0-1.3,1.6-1.8,1.6c-0.2,0-0.3-0.1-0.3-0.3
		c0-1.1,1.4-3.2,2.6-3.2c1.5,0,1.2,2.4,1.2,3.1h0.1c1-1.5,2.8-3.1,4.5-3.1c1.7,0,2,0.9,2.3,2.6c1-1.3,2.4-2.6,4-2.6
		c1.8,0,2.3,1.3,2.3,3.1C115,25.7,114.5,29.1,114.5,30.4z"/>
	<path fill="#58595B" d="M124.5,20.8c0.4,0,0.7,0.1,1.1,0.3c0.4,0.2,0.7,0.3,1.1,0.3c0.4,0,0.9-1.1,1.2-1.1c0.1,0,0.2,0.1,0.2,0.2
		c0,0.2-1.4,6.3-1.4,9.4c0,1.3,0.5,1.3,0.7,1.3c0.8,0,1.1-1.6,1.6-1.6c0.2,0,0.4-0.1,0.4,0.3c0,0.3-1.3,3-2.7,3
		c-1.3,0-1.7-1.7-1.6-2.9l-0.1-0.1c-1.1,1.6-2.7,3.1-4.8,3.1c-1.9,0-2.5-1.5-2.5-3.2C117.5,26.6,120.8,20.8,124.5,20.8z M121.2,31.5
		c2.1,0,3.7-2.6,3.7-3c0-0.4,1-5.1,1-5.9c0-0.4-0.3-1.1-1.6-1.1c-2.6,0-5,4.8-5,7.7C119.3,29.8,119.3,31.5,121.2,31.5z"/>
	<path fill="#58595B" d="M138.2,21.5c0,0.2-0.4,2.1-0.9,2.1c-0.3,0-0.4-1.2-1.4-1.2c-1.4,0-1.8,2.9-1.9,3.8l-0.8,5.6
		c-0.1,0.5-0.1,0.8-0.4,0.8h-1c-0.3,0-0.5,0-0.5-0.4c1-5.7,1.1-6.3,1.1-7c0-0.8,0-2.4-1.1-2.4c-1,0-1.1,2.1-1.7,2.1
		c-0.1,0-0.2-0.2-0.2-0.5c0-0.9,1-3.7,2.3-3.7c0.7,0,1.7,1,1.8,3c0.4-0.5,1.9-3,3.5-3C137.3,20.8,138.2,21.1,138.2,21.5z"/>
	<path fill="#58595B" d="M141.3,15.6c0.1-0.7,0.2-1.3,0.2-1.6c0-0.8-1.9-0.2-1.9-0.7c0-0.6,1-0.3,2.9-0.8c0.3-0.1,0.5-0.1,0.7-0.1
		c0.2,0,0.3,0.1,0.3,0.2c0,0.1-0.1,0.5-0.1,0.8c-0.5,4.4-1.7,12.5-1.7,12.8c0,0.2-0.1,0.5,0.1,0.5c0.2,0,4.2-2.2,4.9-4.7
		c0.3-1.1,0.8-1.4,1.2-1.4c0.4,0,1,0.2,1,0.8c0,0.9-0.8,1.7-4.2,4.2c0.6,1.2,2.5,5.1,3.3,5.1c0.8,0,1.4-1.6,1.8-1.6
		c0.1,0,0.2,0,0.2,0.3c0,0.3-1.1,3.2-2.6,3.2c-1.1,0-1.3-1-3.6-4.8c-0.2-0.3-0.5-1-0.8-1c-0.2,0-1.3,0.5-1.5,0.7
		c-0.2,0.3-0.7,3.2-0.8,4.2c-0.1,0.5-0.1,0.8-0.4,0.8h-1c-0.3,0-0.5,0-0.5-0.4L141.3,15.6z"/>
</g>
</svg>
