<?xml version="1.0" encoding="utf-8"?>
<!-- Generator: Adobe Illustrator 18.1.1, SVG Export Plug-In . SVG Version: 6.00 Build 0)  -->
<svg version="1.1" id="Layer_1" xmlns="http://www.w3.org/2000/svg" xmlns:xlink="http://www.w3.org/1999/xlink" x="0px" y="0px"
	 viewBox="0 0 32 15" enable-background="new 0 0 32 15" xml:space="preserve">
<g>
	<path fill-rule="evenodd" clip-rule="evenodd" fill="#58595B" d="M31.1,4.3c-0.1-0.1-0.2-0.1-0.3-0.2C30.7,4,30.5,4,30.4,3.9
		c-0.1-0.1-0.3-0.1-0.4-0.2c-0.2-0.1-0.3-0.1-0.5-0.2c-0.2-0.1-0.3-0.1-0.5-0.2c-0.1-0.1-0.3-0.1-0.5-0.1c-0.1,0-0.3-0.1-0.4-0.1
		c-0.2,0-0.3-0.1-0.5-0.1c-0.1,0-0.2-0.1-0.3-0.1c-0.1,0-0.3-0.1-0.4-0.1c-0.1,0-0.2-0.1-0.3-0.1c-0.1,0-0.2,0-0.2-0.1
		c-0.2,0-0.3-0.1-0.5-0.1c-0.1,0-0.1,0-0.2,0c-0.1,0-0.2-0.1-0.4-0.1c-0.2,0-0.3-0.1-0.5-0.1c-0.2,0-0.3-0.1-0.5-0.1
		c-0.1,0-0.2,0-0.3,0C24,2,24,2,23.9,2c-0.1,0-0.2,0-0.4-0.1c-0.2,0-0.4-0.1-0.6-0.1c-0.1,0-0.2,0-0.3,0c-0.1,0-0.1,0-0.2,0
		c-0.1,0-0.1,0-0.2,0c-0.1,0-0.3,0-0.4,0c-0.2,0-0.3-0.1-0.5-0.1c-0.2,0-0.3,0-0.5-0.1c0,0-0.1,0-0.1,0c0,0,0,0-0.1,0
		c-0.1,0.1-0.2,0.2-0.4,0.3C20.2,1.9,20,2,19.8,2c-0.2,0-0.3,0-0.4-0.1c-0.1-0.1-0.3-0.2-0.3-0.3c0,0-0.1-0.1-0.1-0.1c0,0,0,0-0.1,0
		c-0.1,0-0.2,0-0.4,0c0,0,0,0,0,0c-0.1,0-0.3,0-0.4,0c-0.2,0-0.4,0-0.5,0c0,0-0.1,0-0.1,0c-0.2,0-0.4,0-0.7,0c-0.1,0-0.2,0-0.2,0
		c-0.3,0-0.6,0-0.9,0c-0.2,0-0.3,0-0.5,0c-0.1,0-0.3,0-0.4,0c-0.2,0-0.4,0-0.6,0c-0.2,0-0.4,0-0.6,0.1c-0.1,0-0.2,0-0.4,0
		c-0.1,0-0.2,0-0.3,0c-0.2,0-0.3,0-0.5,0.1c-0.1,0-0.2,0-0.3,0c-0.1,0-0.1,0-0.2,0c-0.1,0-0.2,0-0.4,0.1c-0.1,0-0.2,0-0.3,0
		c-0.1,0-0.2,0-0.3,0.1c-0.1,0-0.2,0-0.2,0c-0.1,0-0.1,0-0.2,0.1c-0.1,0-0.2,0-0.3,0.1c-0.1,0-0.1,0-0.2,0C9.9,1.9,9.9,2,9.8,2
		C9.6,2,9.5,2.1,9.3,2.1C9.1,2.1,8.9,2.2,8.8,2.3c-0.1,0-0.3,0.1-0.4,0.1c-0.1,0-0.1,0.1-0.2,0.1C8,2.5,7.9,2.6,7.8,2.6
		c-0.1,0-0.1,0-0.2,0.1c-0.1,0-0.2,0.1-0.4,0.1C7.2,2.9,7.1,2.9,6.9,3C6.8,3,6.8,3,6.7,3.1C6.5,3.2,6.4,3.2,6.3,3.3
		C6.2,3.3,6.1,3.4,6,3.4C5.8,3.5,5.6,3.6,5.4,3.8C5.3,3.9,5.2,4,5,4.1C4.9,4.2,4.8,4.2,4.7,4.3C4.6,4.4,4.6,4.5,4.5,4.6
		C4.4,4.7,4.3,4.8,4.2,4.9C4.1,5,4,5.1,3.9,5.3C3.8,5.5,3.8,5.7,3.7,5.9c0,0.2-0.1,0.4-0.1,0.7c0,0.2,0,0.3,0.1,0.5
		c0,0.1,0.1,0.2,0.1,0.3C3.9,7.5,3.9,7.7,4,7.9C4.1,8,4.1,8,4.2,8.1c0.1,0.1,0.1,0.2,0.2,0.3c0,0,0,0.1,0.1,0.1
		C4.4,8.8,4.5,9,4.6,9.2c0,0.1,0,0.2,0.1,0.2c0,0.1,0.1,0.3,0.1,0.4c0,0.1,0,0.2,0,0.3c0,0.1,0,0.3-0.1,0.4c0,0.1,0,0.1-0.1,0.2
		c-0.1,0.1-0.1,0.3-0.2,0.4c-0.1,0.2-0.2,0.3-0.3,0.5c-0.1,0.1-0.2,0.3-0.3,0.4c-0.1,0.1-0.2,0.3-0.4,0.4c-0.1,0.1-0.2,0.2-0.3,0.3
		c-0.1,0.1-0.2,0.2-0.3,0.2c-0.1,0.1-0.2,0.2-0.3,0.2c-0.1,0.1-0.1,0.1-0.2,0.2c-0.1,0.1-0.2,0.1-0.2,0.2c-0.1,0.1-0.2,0.1-0.2,0.2
		c-0.1,0.1-0.2,0.1-0.3,0.2C1.4,13.9,1.3,14,1.2,14C1.1,14.1,1,14.1,1,14.2c-0.1,0.1-0.2,0.1-0.3,0.1c0,0,0,0,0,0
		c-0.1-0.1-0.2-0.1-0.2-0.2c0,0-0.1-0.1-0.1-0.1C0.2,14,0.1,13.9,0,13.8c0.1,0,0.1-0.1,0.2-0.1c0.2-0.1,0.4-0.3,0.6-0.4
		c0.1-0.1,0.2-0.2,0.4-0.3c0.1-0.1,0.3-0.2,0.4-0.3c0.1-0.1,0.2-0.2,0.3-0.3c0,0,0.1-0.1,0.1-0.1c0.2-0.2,0.3-0.3,0.5-0.5
		c0.2-0.2,0.3-0.4,0.4-0.6C2.9,11,3,10.8,3.1,10.6c0-0.1,0-0.3,0-0.4C3.1,10,3,9.9,3,9.7C2.9,9.4,2.9,9.2,2.8,9
		c0-0.1-0.1-0.2-0.2-0.3C2.5,8.5,2.4,8.4,2.4,8.2C2.3,8.1,2.2,8,2.2,7.8C2.1,7.7,2.1,7.5,2.1,7.3c0-0.2,0-0.4,0-0.6
		c0-0.2,0.1-0.5,0.1-0.7c0.1-0.2,0.1-0.4,0.2-0.6c0.1-0.1,0.2-0.3,0.3-0.4C2.8,4.9,2.9,4.8,3,4.6c0.1-0.1,0.3-0.3,0.4-0.4
		C3.6,4.1,3.8,3.9,4,3.8c0.1-0.1,0.3-0.2,0.5-0.3C4.6,3.3,4.8,3.2,5,3.1C5.1,3,5.2,2.9,5.3,2.9c0.1-0.1,0.2-0.1,0.2-0.2
		c0.1,0,0.2-0.1,0.2-0.1C6,2.5,6.1,2.4,6.3,2.3c0.1-0.1,0.2-0.1,0.3-0.2C6.8,2.1,7,2,7.2,1.9c0.2-0.1,0.4-0.2,0.6-0.2
		C7.9,1.6,8,1.5,8.2,1.5c0.2-0.1,0.5-0.2,0.7-0.2c0.2-0.1,0.4-0.1,0.6-0.2C9.6,1,9.8,1,10,1c0.1,0,0.2-0.1,0.3-0.1
		c0.1,0,0.2-0.1,0.4-0.1c0.2,0,0.4-0.1,0.5-0.1c0.1,0,0.3,0,0.4-0.1c0.1,0,0.3,0,0.4-0.1c0.1,0,0.3,0,0.4,0c0.2,0,0.3,0,0.5-0.1
		c0.2,0,0.3,0,0.5,0c0.3,0,0.5,0,0.8,0c0.3,0,0.7,0,1,0c0.1,0,0.2,0,0.2,0c0.3,0,0.6,0,1,0c0.4,0,0.8,0,1.2,0.1
		c0.3,0,0.6,0.1,0.8,0.1c0.1,0,0.3,0,0.4,0c0,0,0,0,0.1,0c0.1-0.1,0.1-0.2,0.2-0.2c0.1-0.1,0.2-0.1,0.2-0.2c0.1,0,0.2-0.1,0.3-0.1
		c0.1,0,0.1,0,0.2,0c0.2,0,0.3,0,0.5,0.1c0.1,0.1,0.2,0.1,0.3,0.2c0.1,0.1,0.2,0.2,0.2,0.4c0,0.1,0,0.1,0.1,0.1
		c0.2,0,0.3,0.1,0.5,0.1c0.1,0,0.3,0,0.4,0.1c0.3,0.1,0.6,0.1,0.8,0.2c0.2,0,0.3,0.1,0.5,0.1c0.2,0,0.4,0.1,0.6,0.1
		c0.2,0,0.4,0.1,0.6,0.1c0.3,0.1,0.6,0.1,0.9,0.2c0.3,0.1,0.6,0.2,0.8,0.2c0.3,0.1,0.6,0.2,0.9,0.3c0.3,0.1,0.5,0.2,0.8,0.3
		c0.2,0.1,0.4,0.2,0.7,0.3c0.2,0.1,0.3,0.1,0.5,0.2c0.2,0.1,0.5,0.2,0.7,0.4c0.2,0.1,0.4,0.2,0.6,0.3c0.2,0.1,0.3,0.2,0.5,0.3
		C30.9,4.1,31,4.2,31.1,4.3C31.1,4.3,31.1,4.3,31.1,4.3z"/>
	<path fill-rule="evenodd" clip-rule="evenodd" fill="#58595B" d="M6.6,8.7c-0.1,0-0.3,0-0.4,0c0-0.1,0.1-0.2,0.1-0.3c0,0,0,0,0.1,0
		c0.1,0,0.2,0,0.3,0c0,0,0.1,0,0.1-0.1C6.8,8,6.8,7.7,6.9,7.5C6.9,7.3,7,7.1,7.1,6.8c0-0.2,0.1-0.3,0.1-0.5c0-0.2,0.1-0.4,0.2-0.6
		c0-0.2,0.1-0.3,0.2-0.4C7.6,5.2,7.7,5,7.8,4.9C8,4.9,8.1,4.8,8.2,4.7c0.1-0.1,0.3-0.1,0.5-0.2C9.1,4.4,9.5,4.4,10,4.4
		c0.2,0,0.4,0,0.6,0.1c0.2,0.1,0.4,0.1,0.6,0.3c0.1,0.1,0.2,0.2,0.2,0.4c0,0.1,0,0.3,0,0.4c0,0.1-0.1,0.2-0.1,0.3
		c0,0.1-0.1,0.2-0.1,0.3c0,0.1-0.1,0.2-0.1,0.3c0,0.1-0.1,0.2-0.1,0.4C11,7,11,7.1,11,7.2c0,0.2-0.1,0.4-0.1,0.5
		c0,0.1-0.1,0.3-0.1,0.4c0,0.2-0.1,0.3-0.1,0.5c0,0.1,0,0.2-0.1,0.3c0,0.1-0.1,0.2-0.1,0.3c0,0.1-0.1,0.2-0.1,0.3
		c0,0.1-0.1,0.2-0.1,0.3c-0.1,0.2-0.1,0.4-0.2,0.6c0,0.2-0.1,0.3-0.1,0.5c0,0,0,0.1,0,0.1c0,0,0,0,0,0c-0.3,0-0.6,0-0.9,0
		c-0.1,0-0.1,0-0.2,0c0.2-0.7,0.4-1.5,0.6-2.2c0,0-0.1,0-0.1,0c-0.6,0-1.1,0-1.7,0c-0.1,0-0.1,0-0.1,0.1c0,0.1-0.1,0.2-0.1,0.4
		c0,0.1-0.1,0.2-0.1,0.3c0,0.1-0.1,0.2-0.1,0.4c0,0.2-0.1,0.3-0.1,0.5c0,0.1-0.1,0.2-0.1,0.3c0,0.1,0,0.2-0.1,0.3c0,0,0,0.1-0.1,0.1
		c-0.3,0-0.5,0-0.8,0c-0.1,0-0.1,0-0.2,0C6.2,10.1,6.4,9.4,6.6,8.7z M8.8,8.3c0.3,0,0.5,0,0.8,0c0.1,0,0.1,0,0.1-0.1
		c0-0.1,0.1-0.2,0.1-0.3c0.1-0.2,0.1-0.4,0.2-0.7c0-0.1,0.1-0.3,0.1-0.4c0.1-0.2,0.1-0.4,0.2-0.6c0.1-0.2,0.1-0.4,0.2-0.6
		c0.1-0.3,0-0.6-0.3-0.7C9.9,4.8,9.8,4.8,9.6,4.8c-0.1,0-0.2,0-0.3,0C9.2,4.8,9.1,4.9,9,4.9C8.8,5,8.8,5.1,8.7,5.2
		C8.6,5.2,8.6,5.3,8.5,5.4c0,0.1-0.1,0.2-0.1,0.4c0,0.2-0.1,0.3-0.1,0.5c0,0.1-0.1,0.2-0.1,0.3c0,0.1-0.1,0.3-0.1,0.4
		C8.1,7.1,8,7.2,8,7.3c0,0,0,0.1,0,0.1c0,0.1,0,0.2-0.1,0.2c0,0.1,0,0.2-0.1,0.3c0,0.1,0,0.1-0.1,0.2c0,0,0,0.1,0,0.1
		c0.1,0,0.1,0,0.2,0C8.2,8.3,8.5,8.3,8.8,8.3z"/>
	<path fill-rule="evenodd" clip-rule="evenodd" fill="#58595B" d="M22.2,4.4c0,0.1,0,0.1,0,0.2c0,0,0.1,0,0.1,0
		c0.3-0.2,0.6-0.2,1-0.2c0.2,0,0.5,0,0.7,0c0.2,0,0.3,0.1,0.5,0.1c0.1,0.1,0.3,0.1,0.4,0.2C24.8,4.9,24.9,5,25,5.2
		c0.1,0.2,0,0.4-0.1,0.6c0,0.2-0.1,0.3-0.1,0.5c0,0.1-0.1,0.2-0.1,0.3c0,0.1-0.1,0.2-0.1,0.3c0,0.2-0.1,0.3-0.1,0.5
		c0,0.2-0.1,0.3-0.1,0.5c0,0.1,0,0.2-0.1,0.2c0,0.1-0.1,0.3-0.1,0.4c0,0.1-0.1,0.3-0.1,0.4C24.1,9,24,9.2,24,9.3
		c0,0.2-0.1,0.3-0.1,0.5c0,0.1-0.1,0.2-0.1,0.3c0,0.1-0.1,0.2-0.1,0.3c0,0.1-0.1,0.2-0.1,0.3c0,0,0,0,0,0c0,0.1,0,0.1-0.1,0.1
		c-0.2,0-0.5,0-0.7,0c-0.1,0-0.1,0-0.2,0c0-0.1,0.1-0.3,0.1-0.4c0-0.2,0.1-0.4,0.1-0.6c0-0.2,0.1-0.4,0.2-0.6C23,9.2,23,9,23.1,8.8
		c0-0.2,0.1-0.3,0.1-0.5c0-0.1,0.1-0.3,0.1-0.4c0-0.2,0.1-0.4,0.1-0.6c0-0.2,0.1-0.4,0.1-0.5c0-0.2,0.1-0.4,0.1-0.6
		c0-0.2,0.1-0.4,0.1-0.6c0-0.1,0-0.1,0.1-0.2c0.1-0.2,0-0.4-0.2-0.6c-0.1-0.1-0.2-0.1-0.4-0.1c-0.1,0-0.3,0-0.4,0
		c-0.1,0-0.2,0-0.2,0.1c-0.1,0-0.2,0.1-0.3,0.2c-0.1,0.1-0.2,0.2-0.3,0.4C22,5.6,22,5.7,22,5.9c0,0.1,0,0.1-0.1,0.2
		c0,0.1,0,0.1-0.1,0.2c0,0.1-0.1,0.2-0.1,0.3c0,0.1-0.1,0.3-0.1,0.4c0,0.2-0.1,0.4-0.1,0.5c0,0.2-0.1,0.4-0.2,0.6
		c0,0.2-0.1,0.3-0.1,0.5c0,0.1,0,0.2-0.1,0.2c0,0.1,0,0.2-0.1,0.3c0,0.2-0.1,0.3-0.1,0.5c0,0.1-0.1,0.2-0.1,0.3
		c0,0.2-0.1,0.4-0.1,0.6c0,0.2-0.1,0.3-0.1,0.5c0,0,0,0.1,0,0.1c0,0,0,0,0,0c-0.3,0-0.6,0-0.8,0c0,0-0.1,0-0.1,0c0,0,0,0,0,0
		c0-0.2,0.1-0.3,0.1-0.5c0.1-0.2,0.1-0.4,0.2-0.6c0-0.2,0.1-0.4,0.1-0.5c0-0.2,0.1-0.4,0.1-0.6c0-0.2,0.1-0.4,0.1-0.5
		c0-0.2,0.1-0.3,0.1-0.5c0.1-0.2,0.1-0.4,0.2-0.6c0.1-0.3,0.1-0.5,0.2-0.8C20.9,5.9,21,5.6,21,5.4c0.1-0.2,0.1-0.5,0.2-0.7
		c0-0.1,0-0.1,0-0.2c0,0,0-0.1,0.1-0.1C21.6,4.4,21.9,4.4,22.2,4.4C22.2,4.4,22.2,4.4,22.2,4.4z"/>
	<path fill-rule="evenodd" clip-rule="evenodd" fill="#58595B" d="M11.6,10.9c0-0.2,0.1-0.4,0.1-0.5c0-0.1,0.1-0.2,0.1-0.3
		c0-0.2,0.1-0.4,0.1-0.6c0.1-0.3,0.1-0.5,0.2-0.8c0.1-0.3,0.1-0.5,0.2-0.8c0-0.2,0.1-0.4,0.1-0.6c0-0.2,0.1-0.4,0.1-0.5
		c0-0.2,0.1-0.4,0.1-0.5c0-0.1,0.1-0.3,0.1-0.4c0-0.2,0.1-0.3,0.1-0.5c0.1-0.2,0.1-0.5,0.2-0.7c0-0.1,0-0.2,0.1-0.3c0,0,0,0,0.1,0
		c0.2,0,0.4,0,0.5,0c0.3,0,0.6,0,0.8,0c0.2,0,0.4,0,0.6,0.1c0.1,0,0.3,0.1,0.4,0.1c0.2,0.1,0.4,0.2,0.6,0.4c0.1,0.1,0.2,0.3,0.3,0.5
		c0.1,0.2,0.1,0.4,0,0.6c0,0.2-0.1,0.4-0.2,0.5c-0.1,0.1-0.1,0.2-0.2,0.3c-0.1,0.1-0.2,0.3-0.3,0.4c-0.1,0.1-0.3,0.3-0.4,0.4
		c-0.2,0.1-0.4,0.2-0.5,0.3c-0.1,0.1-0.2,0.1-0.3,0.2c-0.1,0.1-0.3,0.1-0.4,0.2c-0.1,0-0.1,0-0.2,0.1c0,0,0,0,0,0c0,0,0,0,0,0
		c0.1,0.1,0.2,0.1,0.2,0.2c0.1,0.1,0.2,0.2,0.3,0.3c0.1,0.1,0.2,0.3,0.3,0.4c0.1,0.1,0.1,0.2,0.2,0.3c0.1,0.1,0.1,0.2,0.1,0.4
		c0,0.1,0,0.2,0,0.3c0,0.2,0,0.3,0,0.5c0,0,0,0.1,0,0.1c0,0,0,0-0.1,0c-0.3,0-0.5,0-0.8,0c0,0-0.1,0-0.1,0c0,0,0,0,0-0.1
		c0-0.1,0-0.3,0-0.4c0-0.3-0.1-0.5-0.2-0.8c-0.1-0.1-0.2-0.3-0.3-0.4c-0.1-0.1-0.1-0.2-0.2-0.2c-0.1-0.1-0.2-0.1-0.2-0.2
		c0,0-0.1-0.1-0.1-0.1c-0.1,0-0.1,0-0.1,0c0,0.2-0.1,0.3-0.1,0.5c0,0.1-0.1,0.2-0.1,0.3c0,0.2-0.1,0.4-0.1,0.6
		c-0.1,0.2-0.1,0.4-0.2,0.6c0,0.1,0,0.2-0.1,0.2c0,0,0,0,0,0c-0.3,0-0.6,0-0.8,0C11.7,10.9,11.7,10.9,11.6,10.9z M13.4,8.2
		C13.4,8.2,13.5,8.2,13.4,8.2c0.2-0.1,0.4-0.1,0.5-0.2c0.2-0.1,0.4-0.2,0.6-0.4c0.1-0.1,0.2-0.2,0.3-0.3c0.1-0.1,0.2-0.2,0.2-0.3
		c0.1-0.1,0.2-0.3,0.3-0.4c0.1-0.1,0.1-0.2,0.1-0.3c0.1-0.3,0.2-0.6,0.1-0.9c0-0.2-0.2-0.4-0.3-0.5C15.2,5,15.1,4.9,15,4.9
		c-0.1,0-0.1,0-0.2-0.1c-0.1,0-0.3,0-0.4,0c-0.1,0-0.1,0-0.1,0.1c0,0.1,0,0.2-0.1,0.3c0,0.2-0.1,0.3-0.1,0.5C14,5.8,14,5.9,14,6
		c0,0.1,0,0.2-0.1,0.3c0,0.1-0.1,0.3-0.1,0.4c0,0.1,0,0.2-0.1,0.3c0,0.2-0.1,0.4-0.2,0.6c0,0.1,0,0.2-0.1,0.3
		C13.5,7.9,13.4,8,13.4,8.2C13.4,8.2,13.4,8.2,13.4,8.2z"/>
	<path fill-rule="evenodd" clip-rule="evenodd" fill="#58595B" d="M25.8,7.7c0,0,0-0.1,0-0.1c0-0.1,0-0.1,0.1-0.2
		c0-0.1,0-0.1,0.1-0.1c0.1,0,0.1,0,0.2,0c0,0,0.1,0,0.1-0.1c0.1-0.2,0.1-0.5,0.2-0.7c0.1-0.2,0.1-0.4,0.2-0.6
		c0.1-0.2,0.1-0.4,0.2-0.6c0.1-0.2,0.3-0.4,0.5-0.6c0.1-0.1,0.3-0.2,0.5-0.3c0.2-0.1,0.4-0.1,0.6-0.1c0.4,0,0.7,0,1.1,0
		c0.2,0,0.3,0,0.5,0c0,0,0,0,0.1,0c0,0.1-0.1,0.3-0.1,0.4c0,0,0,0.1,0,0.1c0,0-0.1,0-0.1,0c-0.4,0-0.8,0-1.2,0c-0.1,0-0.3,0-0.4,0.1
		C28,5.1,28,5.2,27.9,5.3c0,0,0,0.1-0.1,0.1c0,0.1-0.1,0.3-0.1,0.4c0,0.1-0.1,0.2-0.1,0.4c0,0.1-0.1,0.3-0.1,0.4
		c0,0.1,0,0.2-0.1,0.3c0,0.1-0.1,0.3-0.1,0.4c0,0,0,0,0,0.1c0.6,0,1.2,0,1.7,0c0,0,0,0.1,0,0.1C29,7.5,29,7.6,29,7.7c0,0,0,0-0.1,0
		c-0.5,0-1.1,0-1.6,0c-0.1,0-0.1,0-0.1,0.1c0,0.1-0.1,0.2-0.1,0.4c0,0.1-0.1,0.2-0.1,0.3c0,0.2-0.1,0.3-0.1,0.5
		c0,0.2-0.1,0.3-0.1,0.5c0,0.1-0.1,0.2-0.1,0.2c0,0.1,0,0.2-0.1,0.3c0,0.1,0,0.1,0,0.2c0,0.1,0.1,0.2,0.2,0.2c0.2,0,0.3,0,0.5,0
		c0.4,0,0.8,0,1.2,0c0.1,0,0.1,0,0.1,0.1c0,0.2-0.1,0.3-0.1,0.5c0,0,0,0-0.1,0c-0.6,0-1.1,0-1.7,0c-0.1,0-0.3,0-0.4,0
		c-0.2,0-0.3,0-0.5-0.1c-0.2-0.1-0.3-0.3-0.3-0.6c0-0.2,0.1-0.4,0.1-0.6c0-0.2,0.1-0.4,0.2-0.6C25.9,8.7,26,8.4,26,8.2
		c0-0.1,0.1-0.3,0.1-0.4c0,0,0-0.1,0-0.1c-0.1,0-0.1,0-0.2,0C25.9,7.7,25.8,7.7,25.8,7.7z"/>
	<path fill-rule="evenodd" clip-rule="evenodd" fill="#58595B" d="M19.5,4.4c0,0.1,0,0.2-0.1,0.3c-0.1,0.2-0.1,0.4-0.2,0.6
		c0,0.2-0.1,0.3-0.1,0.5c0,0.2-0.1,0.3-0.1,0.5C19,6.4,19,6.6,19,6.7c0,0.1-0.1,0.2-0.1,0.3c0,0.1-0.1,0.2-0.1,0.3
		c0,0.2-0.1,0.3-0.1,0.5c0,0.1,0,0.1,0,0.2c0,0.1,0,0.2-0.1,0.2c0,0.1-0.1,0.2-0.1,0.3c0,0.2-0.1,0.3-0.1,0.5c0,0.2-0.1,0.3-0.1,0.5
		c0,0.1-0.1,0.2-0.1,0.3c0,0.1-0.1,0.3-0.1,0.4c0,0.2-0.1,0.3-0.1,0.5c0,0.1-0.1,0.2-0.1,0.4c0,0,0,0-0.1,0c-0.2,0-0.5,0-0.7,0
		c-0.1,0-0.1,0-0.2,0c0,0,0,0,0,0c0-0.1,0-0.2,0.1-0.2c0.1-0.2,0.1-0.4,0.2-0.7c0.1-0.3,0.1-0.5,0.2-0.8c0.1-0.3,0.2-0.6,0.2-0.9
		c0.1-0.2,0.1-0.4,0.2-0.7c0-0.2,0.1-0.4,0.2-0.6c0-0.2,0.1-0.3,0.1-0.5c0.1-0.2,0.1-0.4,0.2-0.6c0-0.2,0.1-0.3,0.1-0.5
		c0-0.1,0.1-0.2,0.1-0.3c0.1-0.2,0.1-0.4,0.2-0.6c0,0,0,0,0.1,0C18.9,4.4,19.2,4.4,19.5,4.4C19.5,4.4,19.5,4.4,19.5,4.4z"/>
</g>
</svg>
