<?xml version="1.0" encoding="utf-8"?>
<!-- Generator: Adobe Illustrator 20.0.0, SVG Export Plug-In . SVG Version: 6.00 Build 0)  -->
<svg version="1.1" id="Layer_1" xmlns="http://www.w3.org/2000/svg" xmlns:xlink="http://www.w3.org/1999/xlink" x="0px" y="0px"
	 viewBox="0 0 323.6 151" style="enable-background:new 0 0 323.6 151;" xml:space="preserve">
<style type="text/css">
	.st0{display:none;}
	.st1{display:inline;fill:#FFFFFF;stroke:#000000;stroke-miterlimit:10;}
	.st2{display:inline;}
	.st3{clip-path:url(#SVGID_2_);fill:url(#SVGID_3_);}
	.st4{fill:#4B7BBE;}
	.st5{fill:url(#SVGID_4_);}
	.st6{fill:#0075BF;}
	.st7{fill:#F7931E;}
</style>
<g id="Layer_2" class="st0">
	<rect x="-140.4" y="-436.3" class="st1" width="595.3" height="841.9"/>
</g>
<g id="Layer_2_1_" class="st0">
	<g class="st2">
		<g>
			<path d="M282.4-72.7c0,0.6,0.5,1.1,1,1.1s1-0.5,1-1.1s-0.5-1.1-1-1.1C282.9-73.8,282.4-73.3,282.4-72.7L282.4-72.7z"/>
			<path d="M103.4-83h1.3h0.7c0.5,0,1.4,0.1,1.9,0.2c0-0.2,0-0.5,0-0.9s0-0.5,0-0.7h-6.4v12.5h6.5c0-0.2-0.1-0.4-0.1-0.8
				c0-0.5,0.1-0.6,0.1-0.8c-0.5,0.1-1.4,0.1-1.9,0.2c-1,0-1.1,0.1-2.1,0.1v-4.6h1.7c0.5,0,1.3,0.1,1.8,0.1c0-0.2-0.1-0.5-0.1-0.7
				s0-0.4,0.1-0.5c-0.5,0-1.3,0.1-1.8,0.1h-1.7V-83z"/>
			<path d="M56.2-81.9c0.2-0.6,0.3-1.2,0.5-1.8c-0.4-0.4-1.5-0.9-2.7-0.9c-2.6,0-4,1.7-4,3.8c0,4.4,5.1,3.3,5.1,6.3
				c0,1.3-0.9,1.9-2,1.9c-1.2,0-2.1-0.7-2.4-2h-0.3c-0.1,0.8-0.3,1.6-0.5,2.3c0.8,0.6,1.8,0.8,2.8,0.8c2.7,0,4.5-1.7,4.5-4
				c0-4.2-5.2-3.7-5.2-6.2c0-1,0.5-1.8,1.9-1.8c1,0,1.6,0.6,2,1.6L56.2-81.9L56.2-81.9z"/>
			<path d="M65.2-75.6c0.5,1.2,0.8,2.5,1.2,3.8c0.5,0,1-0.1,1.5-0.1s1,0.1,1.5,0.1l-4.8-12.7c-0.2,0-0.4,0.1-0.6,0.1
				c-0.2,0-0.4,0-0.7-0.1l-4.9,12.7c0.3,0,0.6-0.1,0.8-0.1c0.3,0,0.5,0,0.8,0.1c0.3-1.3,0.7-2.4,1.2-3.8H65.2L65.2-75.6z M61.7-76.7
				l1.6-4.3l1.5,4.3H61.7L61.7-76.7z"/>
			<path d="M71.2-71.7c0.4,0,0.9-0.1,1.3-0.1s0.9,0.1,1.3,0.1v-5.9h0.1c0.4,0.7,0.9,1.5,1.1,2l2,3.8c0.5,0,1-0.1,1.5-0.1
				s1,0.1,1.6,0.1l-0.7-1.1c-1-1.7-2.1-3.4-3-5.1c1.6-0.4,2.7-1.5,2.7-3.3c0-1.2-0.5-2.1-1.5-2.6c-0.7-0.4-2-0.4-2.8-0.4h-3.7
				L71.2-71.7L71.2-71.7z M73.8-83.3c1,0,2.3-0.1,2.6,1.4c0.1,0.4,0.1,0.7,0.1,0.9c0,1.9-0.9,2.8-2.7,2.6V-83.3L73.8-83.3z"/>
			<path d="M82.2-71.7c0.4,0,0.9-0.1,1.3-0.1s0.9,0.1,1.3,0.1v-12.5c-0.4,0-0.9,0.1-1.3,0.1s-0.9-0.1-1.3-0.1V-71.7L82.2-71.7z"/>
			<path d="M88.1-71.8c0.2,0,0.5-0.1,0.7-0.1s0.5,0,0.7,0.1v-8.9l1.9,2.1c1.9,2.2,3.8,4.4,5.8,6.8h1.5v-12.5c-0.2,0-0.5,0.1-0.7,0.1
				s-0.5,0-0.7-0.1v8.6c-2.4-2.9-5-5.7-7.4-8.6h-1.7v12.5H88.1z"/>
			<path d="M118.8-83.4c1.5,0,2.7,0.1,3.6,0.2c0-0.2-0.1-0.4-0.1-0.5c0-0.2,0-0.3,0.1-0.5h-8.8c0,0.2,0.1,0.4,0.1,0.5
				c0,0.2,0,0.4-0.1,0.5c1-0.1,2-0.2,3.8-0.2v11.7c0.2,0,0.5-0.1,0.7-0.1s0.5,0,0.8,0.1L118.8-83.4L118.8-83.4z"/>
			<path d="M126-83.4h1.3h1.7c0.5,0,1,0.1,1.5,0.2c0-0.2-0.1-0.4-0.1-0.5c0-0.2,0-0.3,0.1-0.5h-6.1v12.5h6.2c0-0.2-0.1-0.4-0.1-0.6
				s0-0.3,0.1-0.5c-0.5,0.1-1,0.1-1.6,0.2c-1,0-2.1,0.1-3.1,0.1V-78h2.7c0.5,0,1,0.1,1.5,0.1c0-0.2-0.1-0.4-0.1-0.5
				c0-0.2,0-0.3,0.1-0.5c-0.5,0-1,0.1-1.5,0.1H126V-83.4L126-83.4z"/>
			<path d="M142.4-73.8c-0.3,0.3-1.8,1.5-3.6,1.5c-2.7,0-4.6-2.3-4.6-5.8c0-3.1,1.6-5.8,4.7-5.8c1.8,0,3,1.2,3.3,1.6h0.1
				c0.1-0.5,0.2-1,0.4-1.4c-1.1-0.5-2.4-0.8-3.7-0.8c-3.6,0-6.5,2.3-6.5,6.5c0,4,2.3,6.5,6,6.5c1.3,0,2.7-0.3,3.8-1L142.4-73.8
				L142.4-73.8z"/>
			<path d="M153.8-79c-1.2,0-2.4,0.1-3.6,0.1c-1.2,0-2.4-0.1-3.6-0.1v-5.2c-0.3,0-0.5,0.1-0.8,0.1s-0.5,0-0.8-0.1v12.5
				c0.2,0,0.5-0.1,0.8-0.1c0.2,0,0.5,0,0.8,0.1V-78c1.2,0,2.4-0.1,3.6-0.1c1.2,0,2.4,0.1,3.6,0.1v6.3c0.2,0,0.5-0.1,0.8-0.1
				c0.2,0,0.5,0,0.8,0.1v-12.5c-0.3,0-0.5,0.1-0.8,0.1s-0.5,0-0.8-0.1V-79L153.8-79z"/>
			<path d="M168.9-84.3c-0.2,0-0.3,0.1-0.5,0.1s-0.3,0-0.5-0.1v9.4h-0.2l-8.1-9.4h-0.7v12.5c0.2,0,0.3-0.1,0.5-0.1s0.3,0,0.5,0.1
				v-9.9h0.2l7.4,8.7c0.4,0.4,0.7,0.9,0.9,1.1h0.5L168.9-84.3L168.9-84.3z"/>
			<path d="M182.7-78.2c0.1,2-1.2,6-4.8,6c-2.6,0-4.7-1.9-4.7-5.7c0-3.7,1.8-6.1,4.8-6.1c1.4,0,2.7,0.6,3.6,1.8
				C182.5-81,182.7-79.7,182.7-78.2L182.7-78.2z M177.9-71.6c3.8,0,6.5-2.7,6.5-6.7c0-4.4-3.3-6.3-6.5-6.3c-3.5,0-6.3,2.5-6.3,6.5
				C171.5-74.1,174.1-71.6,177.9-71.6L177.9-71.6z"/>
			<path d="M188.4-84.3c-0.3,0-0.5,0.1-0.8,0.1s-0.5,0-0.8-0.1v12.5h6.2c0-0.2-0.1-0.4-0.1-0.6s0-0.3,0.1-0.5
				c-0.5,0.1-1.1,0.1-1.6,0.2c-1,0-2.1,0.1-3.1,0.1v-11.7H188.4z"/>
			<path d="M206.1-78.2c0.1,2-1.2,6-4.8,6c-2.6,0-4.7-1.9-4.7-5.7c0-3.7,1.8-6.1,4.8-6.1c1.4,0,2.7,0.6,3.6,1.8
				C205.9-81,206.1-79.7,206.1-78.2L206.1-78.2z M201.3-71.6c3.8,0,6.5-2.7,6.5-6.7c0-4.4-3.3-6.3-6.5-6.3c-3.5,0-6.3,2.5-6.3,6.5
				S197.5-71.6,201.3-71.6L201.3-71.6z"/>
			<path d="M220.6-82.1c0.1-0.5,0.2-1,0.4-1.4c-0.4-0.3-1.8-1.1-4.4-1.1c-3.8,0-6.7,2.3-6.7,6.5c0,3.7,2,6.5,6.3,6.5
				c1.6,0,3.2-0.3,4.7-0.8v-5.2c-0.3,0-0.5,0.1-0.7,0.1c-0.3,0-0.5,0-0.8-0.1v4.7c-0.8,0.4-1.7,0.6-2.7,0.6c-3.4,0-5.1-2.3-5.1-5.9
				c0-3.7,2-5.7,4.9-5.7c1.5,0,2.9,0.6,3.9,1.8H220.6L220.6-82.1z"/>
			<path d="M224.1-71.8c0.2,0,0.5-0.1,0.8-0.1c0.2,0,0.5,0,0.8,0.1v-12.5c-0.3,0-0.5,0.1-0.8,0.1s-0.5,0-0.8-0.1V-71.8L224.1-71.8z"
				/>
			<path d="M230.5-83.4h1.3h1.7c0.5,0,1,0.1,1.5,0.2c0-0.2-0.1-0.4-0.1-0.5c0-0.2,0-0.3,0.1-0.5h-6v12.5h6.2c0-0.2,0-0.4,0-0.6
				s0-0.3,0-0.5c-0.5,0.1-1,0.1-1.6,0.2c-1,0-2.1,0.1-3.1,0.1V-78h2.6c0.5,0,1,0.1,1.5,0.1c0-0.2-0.1-0.4-0.1-0.5
				c0-0.2,0-0.3,0.1-0.5c-0.5,0-1,0.1-1.5,0.1h-2.6L230.5-83.4L230.5-83.4z"/>
			<path d="M237.5-74.3c-0.1,0.5-0.2,1.1-0.3,1.6c0.6,0.7,2,1.1,2.8,1.1c2.3,0,4.2-1.6,4.2-4.2c0-3.9-5.4-2.5-5.4-5.9
				c0-1.3,1-2.1,2.2-2.1c1,0,1.8,0.6,2.1,1.6h0.2c0.1-0.5,0.3-1,0.5-1.5c-0.6-0.6-1.6-0.9-2.5-0.9c-2.1,0-3.8,1.2-3.8,3.5
				c0,4.1,5.4,2.6,5.4,6c0,1.4-1,2.7-2.4,2.7c-1.3,0-2.1-0.7-2.8-1.9L237.5-74.3L237.5-74.3z"/>
			<path d="M253.3-84.3c-0.3,0-0.5,0.1-0.8,0.1s-0.5,0-0.8-0.1v12.5h6.2c0-0.2-0.1-0.4-0.1-0.6s0-0.3,0.1-0.5
				c-0.5,0.1-1.1,0.1-1.6,0.2c-1,0-2.1,0.1-3.1,0.1v-11.7H253.3z"/>
			<path d="M263.2-83.4c1.5,0,2.7,0.1,3.6,0.2c0-0.2,0-0.4,0-0.5c0-0.2,0-0.3,0-0.5H258c0,0.2,0.1,0.4,0.1,0.5c0,0.2,0,0.4-0.1,0.5
				c1-0.1,2-0.2,3.8-0.2v11.7c0.2,0,0.5-0.1,0.8-0.1c0.2,0,0.5,0,0.8,0.1v-11.7H263.2z"/>
			<path d="M270.6-83.6c0.7,0,1.5-0.1,2.2-0.1c3.8,0,5.3,1.4,5.3,5.3c0,2.2-0.6,4.3-2.5,5.2c-1.4,0.8-3.5,0.5-5,0.4V-83.6
				L270.6-83.6z M269.1-71.8h3.3c1.8,0,3.7,0,5.2-1.4c1.3-1.2,2.2-2.9,2.2-5.4c0-1.7-0.5-3.4-1.8-4.6c-1.4-1.3-3.2-1.1-5-1.1h-3.9
				L269.1-71.8L269.1-71.8z"/>
		</g>
		<path d="M25.1-148.5c19.1-26.9,60.1-47,113.5-50.2c57.1-3.5,142.7,12,172.3,39.6c-31.8-22.5-119.1-34-164.4-31
			c-54.1,3.6-95.9,20.8-116.2,45.8C19-130.3,14.9-134.3,25.1-148.5L25.1-148.5z"/>
		<g>
			<g>
				<defs>
					<path id="SVGID_1_" d="M16.4-151c19.1-26.9,60.1-47,113.5-50.2c57.1-3.5,152.2,13.9,181.8,41.5
						c-31.8-22.5-128.6-35.9-173.9-32.9c-54.1,3.6-95.9,20.9-116.2,45.8C10.3-132.7,6.3-136.7,16.4-151L16.4-151z"/>
				</defs>
				<clipPath id="SVGID_2_">
					<use xlink:href="#SVGID_1_"  style="overflow:visible;"/>
				</clipPath>
				
					<linearGradient id="SVGID_3_" gradientUnits="userSpaceOnUse" x1="5.8" y1="320.5" x2="314.8" y2="320.5" gradientTransform="matrix(1 0 0 -1 0 152)">
					<stop  offset="0.25" style="stop-color:#FFFFFF"/>
					<stop  offset="1" style="stop-color:#4D78B3"/>
				</linearGradient>
				<rect x="5.8" y="-205.5" class="st3" width="309" height="74"/>
			</g>
		</g>
		<path d="M284.2-90.9h-17.1c-7.3,0-11-0.8-12.6-3.4c-1-1.8-0.8-4.2,1-12.3l4.5-17.8h-4.2l1.4-3.9h3.5l3.5-12.3
			c1.8-6.9,3.1-10.8,9.1-14.5c3.3-2,6.7-3.1,13.6-3.1h13.4l-1.4,5.5c0,0-8.7,0-12.6,0c-4.4,0-6,0.9-6.8,1.7s-2.5,3.5-3.3,6.7
			l-4.1,16h18.4l-1.5,3.9h-17.9l-5.4,20.8c-1.1,5-0.8,5.3-0.5,5.9c0.6,1,2,1.1,5.1,1.2c3.6,0.1,15.2,0,15.2,0L284.2-90.9z"/>
		<path class="st4" d="M283.3-92.2h-17.1c-7.3,0-11-0.8-12.6-3.4c-1-1.8-0.8-4.2,1-12.3l4.5-17.8h-4.2l1.4-3.9h3.5l3.5-12.3
			c1.8-6.9,3.1-10.8,9.1-14.5c3.3-2,6.7-3.1,13.6-3.1h13.4L298-154c0,0-8.7,0-12.6,0c-4.4,0-6,0.9-6.8,1.7s-2.5,3.5-3.3,6.7l-4.1,16
			h18.4l-1.5,3.9h-17.9l-5.4,20.8c-1.1,5-0.8,5.3-0.5,5.9c0.6,1,2,1.1,5.1,1.2c3.6,0.1,15.2,0,15.2,0L283.3-92.2z"/>
		<path d="M224.8-158.5L219-156l0.6-2.4h-10L192-90.9h11l14.4-55.3c1.7-6.5,7.9-8.7,11.9-8.7c3.9,0,9.2,2.2,7.5,8.7l-14.4,55.3h11
			l14-53.7c2.8-10.8-6.4-14.2-17.1-14.2C227.7-158.8,225.7-158.6,224.8-158.5L224.8-158.5z"/>
		<path class="st4" d="M223.4-159.6c-2.5,0.4-5.7,2.4-5.7,2.4l0.6-2.4h-10l-17.6,67.5h11l14.4-55.3c1.7-6.5,7.9-8.7,11.9-8.7
			c3.9,0,9.2,2.2,7.5,8.7l-14.4,55.3h11l14-53.7c2.8-10.8-6.4-14.2-17.1-14.2c-2,0-4.2,0.2-5.9,0.5"/>
		<polygon points="180.9,-158.4 163.3,-90.9 174.4,-90.9 192,-158.4 		"/>
		<polygon class="st4" points="179.7,-159.6 162.1,-92.2 173.1,-92.2 190.7,-159.6 		"/>
		<path d="M136.2-104.5c2.2,3.9,2.6,9.2,1.5,13.5H148c1.2-4.5,0.7-10.1-2.5-15.6c-2.5-4.2-6.2-7.6-9.8-10.1
			c7.2-2.3,22.9-8.8,26.4-21.9c4.2-16.3-11.9-19.8-26.3-19.8h-8.4l-17.6,67.5h11l6.2-23.9C130.2-112.5,133.8-108.8,136.2-104.5
			L136.2-104.5z M137.3-154.5c7.7,0,17,2.2,13.5,15.8c-3.6,14-19,19.1-22.7,19.7L137.3-154.5L137.3-154.5z"/>
		<path class="st4" d="M135-105.7c2.2,3.9,2.6,9.2,1.5,13.5h10.3c1.2-4.5,0.7-10.1-2.5-15.6c-2.5-4.2-6.2-7.6-9.8-10.1
			c7.2-2.3,22.9-8.8,26.4-21.9c4.2-16.3-11.9-19.8-26.3-19.8h-8.4l-17.6,67.5h11l6.2-23.9C128.9-113.8,132.6-110,135-105.7
			L135-105.7z M136.1-155.7c7.7,0,17,2.2,13.5,15.8c-3.6,14-19,19.1-22.7,19.7L136.1-155.7L136.1-155.7z"/>
		<path d="M65.6-144.6l-6.8,26.1h-4.4l-1,3.9h4.4L51.7-91h11l6.1-23.6h19.4L82-90.9h11l14-53.7c2.8-10.8-6.4-14.2-17.1-14.2
			S68.4-155.3,65.6-144.6L65.6-144.6z M96.4-146.3l-7.2,27.8H69.8l7.2-27.8c1.7-6.6,7.9-8.7,11.9-8.7
			C92.8-154.9,98.1-152.8,96.4-146.3L96.4-146.3z"/>
		<path class="st4" d="M64.3-145.8l-6.8,26.1h-4.4l-1,3.9h4.4l-6.1,23.6h11l6.1-23.6h19.4l-6.1,23.6h11l14-53.7
			c2.8-10.8-6.4-14.2-17.1-14.2C78-160.1,67.1-156.6,64.3-145.8L64.3-145.8z M95.2-147.5L88-119.7H68.5l7.2-27.8
			c1.7-6.6,8-8.7,11.9-8.7C91.6-156.2,96.9-154.1,95.2-147.5L95.2-147.5z"/>
		<path d="M57.9-171.4l-7.3-5c-14.9,8.3-34.7,20.8-38.2,36.2c-2.2,9.6-1,15.7,3.4,23.8c4.7,8.7,7.7,16.9,6.1,23.8
			C19-80,5.4-68-9.7-59.8l7,5.3c18.2-9.8,36.9-23.2,41.3-42c1.7-7.2-1.7-16.6-6-24.3c-4.3-7.5-5.5-13.6-3.6-22.2
			C31.2-152.8,42.2-162.8,57.9-171.4L57.9-171.4z"/>
		<path class="st4" d="M55.8-173.3l-7.3-5c-14.9,8.3-34.7,20.8-38.2,36.2c-2.2,9.6-1,15.7,3.4,23.8c4.7,8.7,7.7,16.9,6.1,23.8
			C16.9-82,3.3-70-11.8-61.8l7,5.3c18.2-9.8,36.9-23.2,41.3-42c1.7-7.2-1.7-16.6-6-24.3c-4.3-7.5-5.5-13.6-3.6-22.2
			C29.1-154.8,40.1-164.8,55.8-173.3L55.8-173.3z"/>
		
			<radialGradient id="SVGID_4_" cx="193.7282" cy="347.2" r="10.2302" fx="195.8217" fy="344.7325" gradientTransform="matrix(1 0 0 -1 0 152)" gradientUnits="userSpaceOnUse">
			<stop  offset="1.996805e-02" style="stop-color:#FFFFFF"/>
			<stop  offset="1" style="stop-color:#DB914C"/>
		</radialGradient>
		<circle class="st5" cx="193.7" cy="-195.2" r="10.2"/>
	</g>
</g>
<g>
	<g>
		<path class="st6" d="M161.9,8.9c111.2,0,155.2,36.8,158.9,40.3c-23.8-15.9-64.3-22.7-77.1-25c-30.2-5.1-50.9-7.3-70.6-7.3
			c-13.2,0-25.9,1-40.7,2.9c-36.8,4.7-68.9,20-80,33.3c-11,13.3-6.9,22.4-2.7,32.5c4.2,10.1,5.7,14.7,5.5,19.4
			c-2.2,25.6-39.4,43.4-41.4,44.4l-6.7-5.2C32,128.9,47.8,115.8,34,91.1c-13.8-24.7,8.1-45.4,9.2-46.5C72.1,15,133.9,9.8,137.2,9.5
			C145.8,9.1,154,8.9,161.9,8.9z"/>
	</g>
	<circle class="st7" cx="206.1" cy="13.2" r="10.3"/>
	<path class="st6" d="M104.3,50.2c-22.1-1-25.5,12.5-25.5,12.5l-7.4,27l-4,0.4L66.5,94h4l-6.2,22h11l6.3-22h18.8l-6.2,22h11.2
		l6.8-25.9l7.2-27.5C121.6,49.8,104.3,50.2,104.3,50.2z M108.5,63.4l-6.8,26.3l-19,0L89.7,63c0,0,1.8-9.2,12.5-8.9
		C102.1,54.1,111.3,54.6,108.5,63.4z"/>
	<path class="st6" d="M173.6,64.6c0.3-14.5-22.8-14.6-22.8-14.6H139l-10.8,40.9l-6.5,25.1h10.8l6.3-23.5
		c14.2,10.3,10.4,23.5,10.4,23.5h9.9c3.8-15-12.1-25.2-12.1-25.2C160,86.1,173.3,79.1,173.6,64.6z M139.8,89.2l9.1-34.6
		c0,0,13.6-1.5,13.8,9.5C162.7,64.1,163.8,82.8,139.8,89.2z"/>
	<polygon class="st6" points="184.7,116 173.7,116 191.4,50 202,50 	"/>
	<path class="st6" d="M213,116h-11l17.3-66h10.2l-0.7,2.7c0,0,3-3.5,14.2-2.8c11.1,0.7,13.8,5.3,14.1,10.1c0,0-0.2,2.5-1.4,7.1
		c-1.2,4.6-12.7,48.8-12.7,48.8h-11.2l14.6-55c0,0,1.3-6.3-5.3-7.1c-6.6-0.8-12.9,2.8-13.9,7.9L213,116z"/>
	<path class="st6" d="M280.8,80h18.1l-1.5,5H280c0,0-6,22-5.9,23c0,0-1.4,3,3.4,3c4.7,0,16.7,0,16.7,0l-1.2,5h-21.6
		c0,0-10,1.9-7.6-8.9c2.4-10.8,5.5-22.1,5.5-22.1H265l1.5-5h3.2c0,0,4.5-15.4,5-16.7c0.5-1.3,2.4-9.7,14-12.4c0,0,3.9-0.9,5.5-0.9
		c1.5,0,14.9,0,14.9,0l-1.5,5.6c0,0-13,0.2-15.1,0.5c-2.1,0.3-5.1,0.6-6.8,6.7C283.9,68.9,280.8,80,280.8,80z"/>
</g>
</svg>
