<?xml version="1.0" encoding="utf-8"?>
<!-- Generator: Adobe Illustrator 18.1.1, SVG Export Plug-In . SVG Version: 6.00 Build 0)  -->
<svg version="1.1" id="Layer_1" xmlns="http://www.w3.org/2000/svg" xmlns:xlink="http://www.w3.org/1999/xlink" x="0px" y="0px"
	 viewBox="0 0 90 230" enable-background="new 0 0 90 230" xml:space="preserve">
<path fill="#CAE3B5" d="M44.7,66.1c1.4,7.9-1.6,11.9-4.5,12.7c-0.7,0.6-4.1,3.9-8.1,4.3c7.5-3.6,7.3-5.7,8.9-11.2
	c0.8,3.3,0.6,3.6-0.3,5.1c6.5-5.3,2.5-13.6,0.5-18.8c6.1,3.7,6,7.2,6.5,9.7C46.1,65.8,45.6,66.2,44.7,66.1z M27.4,63.8
	c-1.7,1-2.9,1.7-3,5.6c-0.1,3.8,4.5,6.2,7.5,2.5c-1.1,2.1-1.3,2.8-1.3,2.8s3.8-1.8,4.3-4.7c0-4.4-6.5-4.5-7.2-3.8
	c2.2,0.4,4.6,0.5,4.3,3.6c-0.1,1-2.9,3.3-4,1.9c-1-1.3-1.3-1.4-1.4-2.2c0.3,1.8,0.6,2.9,0.6,2.9c-2.1-1.7-2.8-7.4,2.4-2.6
	c-1.1-2-2.3-2-3.2-3.1c-0.9-1.1,1.9-3.3,4.5-2.2c2.7,1.1,7,3.8,8.3,7.3c0,0.8,0.5,1.4-0.6,2.1c-0.7-3.5-0.6-3-2.7-4.2
	c0.8,3.7-2.8,6-5.8,6.2c-3,0.2-12.3-8-2.1-13.6c10.2-5.6,12.7,5,12.7,5S32.7,61,27.4,63.8z M19,64c0.4-0.4,7.1-6,14.1-4
	c-3.4,0-14.4,3.3-11,12.1c3.3,8.8,11.7,5.6,11.7,5.6s-4.3,2.6-5.6,2.1c1.2,1.6,2.3,2.8,3.6,2.6c-4.1,1.4-6.2,2.6-7.1,0.3
	c-0.9-2-3.2-6.2-3.7-7.1l-0.1-0.3c0,0-5,0-6.3-1.8C15.9,71,18.9,65.9,19,64l-1.8-2.1L19,64z M24.8,54.5c0,0,6.2-1.1,8.7,2.7
	c1.4,2,1.5,2.8,1.5,2.8s-2.5-4.2-12.2-0.4c0.2-1,1.1-5.4,0.9-6.4L24.8,54.5z M38.6,86.6c1.2-2.2,3.5-4.2,5.7-4.8
	c1.4-4.8,1.3-9.8,3.2-11c4-1.3,3.9-1.5,3.9-1.5s-4-4.4-3.3-9.1l0.1,0.5c0,0,2.3,5.6,6.3,7.1c2.3,1.1,3,2.3,3,2.3s-3.1-0.3-4.1,1.3
	s-2.4,5.4-3.9,7.1c-0.1,0.1-0.1,0.1-0.1,0.2c-0.4,0.4-0.7,0.7-1.1,1.1c-4.2,3.8-4.5,6.2-7.6,8c-3.2,1.8-6.6,3.1-6.6,3.1
	S35,86.7,31,85c-0.8-0.3-4,0.1-5.9,0.6C27.7,84.5,33,83.2,38.6,86.6z M26.2,48.8c0,0,6,4.5,7.2,4.7c1.2,0.2,5.9-3.2,7.1-1.6
	c1.2,1.6,1.7,4.7,1.7,4.7L40.5,57c0,0-1.3-1.8-2.3-1.2c-1.1,0.6,0.7,2.6,1.1,5.2c-2.6-3.1-7-8.3-13.4-7.8l-0.2,0l0.3,0
	c0,0-0.3-4.8-1.5-6.1L26.2,48.8z M68,38.9c-10.1,6.9-17.4,5.1-20.3,1.6c-1.2-0.6-8-3.2-10.9-8.6c9.6,8.3,12.4,6.7,21,5.4
	c-4.1,3.1-4.6,3-7.3,2.7c11.4,5.8,20.4-4.9,26.4-10.8c-1.4,10.7-6.4,12.7-9.5,15C69.3,40.7,68.5,40.2,68,38.9z M60.6,13.5
	c-2.4-1.7-4.2-3-9.6-0.7c-5.4,2.3-5.9,10,1.1,12c-3.6-0.2-4.7-0.1-4.7-0.1s4.8,4.2,9.1,3.1c6.1-2.7,2.2-11.7,0.8-12.3
	c0.8,3.2,2.2,6.6-2.4,8.2c-1.5,0.5-6.4-2-5.1-4.4c1.2-2.2,1.1-2.6,2.1-3.3c-2.3,1.5-3.6,2.6-3.6,2.6c1-4,8.6-8.4,5.1,1.6
	c2.2-2.7,1.4-4.4,2.3-6.3c0.9-1.9,5.7,0.6,5.9,4.9c0.2,4.3-0.9,12-5,16c-1.2,0.5-1.6,1.5-3.3,0.4c2.4-1.7,3.3-2.3,3.7-3.2
	c0.3-0.7,0.3-1.5,0.4-3.2c-4.6,3.4-10-0.2-12.1-4.2c-2.1-4,3.6-22,17.6-11.3c14,10.6,0.9,20.7,0.9,20.7S67.7,19.2,60.6,13.5z M55,2
	c0.8,0.4,12.8,6.1,14.2,17.1c-2.1-4.8-13.4-17.9-23.6-7.8C35.5,21.4,45,31,45,31s-6.2-4.3-6.4-6.4c-1.4,2.6-2.5,5-1.4,6.6
	c-4.4-4.8-7.4-6.9-4.8-9.7c2.3-2.4,6.6-8.2,7.6-9.5l0.3-0.3c0,0-3-6.9-1.3-9.8C43.5,2.1,52.4,3,55,2L55,2z M71.9,4.2
	c0,0,5.4,7.9,1.7,13.7c-2,3.1-2.9,3.8-2.9,3.8s4.2-6-7-17.1c1.5-0.3,8.1-1.8,9.4-2.7L71.9,4.2z M24.8,91.5c0,0-5.6,6-15.6,5
	c-8.6-1-13.5,9.7-0.1,23c-14.3-11.5-7.9-23.3-5.5-26.7c2.4-3.4,6.8-13.8,19-6.6c-3.9,0.7-15.3-0.3-18.9,8.2c4.7-4,7.5-8.1,25.9-7.2
	C32.3,87.4,24.8,91.5,24.8,91.5z M65.3,63.7c-2.4,1.4-8.1,2.9-14.2-6.9c3.7,11.2,11,9,14,7.5L65.3,63.7z M90,155.8
	c0-1.5-0.4-3.3-1.2-5.2c-0.4-0.8-0.8-1.6-1.2-2.4c-0.4-0.7-0.8-1.4-1.3-2.1c0.2,0.3,0.4,0.5,0.6,0.8c-0.3-0.5-0.6-1-0.8-1.5
	c-3.6-6.6-7.6-13-11.2-19.5c0.9,14.7-5.4,27.6-10.8,36.3c-7.1,11.4-7.7,19-8.1,23.5c-2.3-4.7,2.4-14.7,2.4-14.7s-1.4,2.5-10.7,16.2
	c-2.2,7.1,0.5,7.9,0.5,7.9s2.8,5.4,1.5,12.2c-1.3,5.8,4.2,12,12.5,6c-7.4,7.1-13.3-0.4-15-2.9c-1.7-2.5-7-8.3-2-15.1
	c0.1,2.9-1.4,10.7,2.9,15.4c-1.8-4.3-3.8-7.4-1.8-20c0.1-0.7,0.2-1.3,0.3-1.9c-1.4,2.1-3.1,4.5-4.9,7.1
	c-14.7,21.4-5.7,27.8-4.6,31.1c-13-15,2.6-30.9,21.7-57.9c-16,17.3-32.5,26-52.7,26c15.1-0.7,24.7-6.8,33.3-10.6
	c-14.2,2.2-18.2-1.8-22.4-5.9c-4.2-4.1-4-11.4,1.4-16.1c6.6-5.7,15.1,3.7,15.1,3.7S22.8,157,17,166c-5.8,9,5.1,17.7,15.5,17.8
	c11.4,0.1,23.9-13.1,29.1-20.5c11.8-20.1,11.6-34.5,9.1-45.4c-0.4-0.9-0.8-1.7-1.2-2.6c1.1,13.6-7.4,31.2-21.2,36.5
	c-15.8,6-26.7-3.2-32.3-12.2c-5.6-9.1,0.4-18.4,1.6-20.6c1.2-2.2,8.6-9,18.4-4.3c9.8,4.7,9.9,19.5-0.9,18.4
	c9.8-0.3,7.5-16.8-2.4-18.2c-11.2-1.8-16.1,5.6-17.6,13.6c-2.7,12.8,17.4,34,38.5,18c13.9-10.6,14.3-28.5,13.7-36.4
	c-0.1-0.2-0.1-0.3-0.1-0.4c-4.6-12-6.7-25.3-2.9-41.6c-7.1,1.2-15-3.7-14.3-15c4.2,5.7,4.4,1.3,10.4,3.4c5.9,2.1-1.7,2.9,5.3,6.4
	c0.7-2.4,1.6-4.9,2.5-7.4c-0.6-0.6-1.3-1.1-2.2-1.2c-2.8-0.3-9,0-12.3-1.1c-0.2,0-0.3-0.1-0.3-0.1c-0.7-0.3-1.5-0.5-2.2-0.8
	c-7.9-3.5-11.4-2.4-15.8-5.7c-4.4-3.3-8.3-7.3-8.3-7.3s6.6-1.1,6.4-7.7c-0.1-1.2-2.6-5.6-4.4-7.8c3,3,8.1,9.4,6.9,19.3
	c3.8,0.3,8,2.3,10.1,5c7.5-1,14.4-4.2,17.3-2.4c4.3,4.7,4.5,4.4,4.5,4.4s2.2-5.1,6.5-8.2c2.1-3.9,4.4-8,7.1-12.3
	c0.5-0.8,1-1.7,1.6-2.7c-1.6,1.5-3.3,2.6-3.3,2.6L78,27.4c0,0,1.7-2.9,0.2-3.9c-1.5-1.1-3.2,2.6-6.5,4.7c2.8-5.5,7.3-14.8,2.6-23.3
	l-0.1-0.3C74.4,4.9,74.4,5,74.4,5s5.2-2.7,7-5h0.2l-1,2.6c0,0-2.6,11.1-2.1,12.9c0.4,1.5,5.8,4.9,6.7,7.5l0.8-1.6
	c-4.7-3.4-3.9-8.2-3.5-9.9C83,9.5,83.3,4,90,4.9v0.3c-2.1,1-6.9,2.6-7.2,7c1.3-2.3,2-4.3,7.2-6.5l0,4.5c-1,0.8-2.3,1.6-4.1,2
	c-3.6,0.8-4.5,5.1,0.3,8.9c1.2-2.3,2.5-5,3.9-7.8l0,11.2c-20.3,35.5-27.8,53.5-17.5,82.6C77,119.8,84,131.4,90,143.6V155.8z M90,47
	c-12.2,22.1-13.8,37.9-5.6,60.9c1.6,4.6,3.6,8.9,5.6,13.3v3.8c-2.8-5.5-5.5-11.2-7.6-17.1c-9.1-25.6-8.2-43.3,7.6-70.2V47z M90,35.2
	c-16.4,27-20.8,46.5-11.8,71.9c3.1,8.9,7.5,17.1,11.8,25.5l0,4.4c-16.2-28.9-33-61.6,0-108.9V35.2z M90,183
	c-0.9,1.4-1.8,2.5-2.8,3.8c1.1-0.7,2.1-1.6,2.8-2.7l0,1c-0.7,0.6-1.4,1.2-1.9,1.6c-2.3,2-9.9,7.8-15.2-1c6.5,8,13.3,3.4,13.6-2.5
	c0.3-4.6,2.2-8.1,3.5-10L90,183z M71.9,162.8c0,0,4.6-3.4,11.2-1.3c3.6,1.2,6.8-1.1,6.9-5.5l0,3.1c-0.8,2.8-2.6,4.8-3.5,5.7
	c-2,2-6.4,8.5-13.8,1.9c2.7,0,10.3,2.2,13.9-3c-3.7,2.1-6.2,4.5-18.5,1.4C66.2,164.6,71.9,162.8,71.9,162.8z M37.4,0
	c-1,0.9-3.4,0.5-1.1,6.9c-1.7-0.1-6.1-1.3-7.6-6.9H37.4z M24.6,0h2.3c1.7,6.3,9.2,7.6,9.2,7.6s0.5,1.9,0.3,4.3
	C30.5,10.8,25.6,6,24.6,0z M59,78.8c-12.7,2.3-11.2,16.2-4.8,27.1c-7.8-21.1-0.9-26.1,5.2-25.6c-3.9,3.2,1.3,5.1,1,14
	c-0.3,8.9-5.3,12.2-2.9,17.1c-16.4-7.4-16.3-20.1-11.1-27C58,70.5,61.3,78.3,59,78.8z"/>
</svg>
