<?xml version="1.0" encoding="utf-8"?>
<!-- Generator: Adobe Illustrator 18.1.1, SVG Export Plug-In . SVG Version: 6.00 Build 0)  -->
<svg version="1.1" id="Layer_1" xmlns="http://www.w3.org/2000/svg" xmlns:xlink="http://www.w3.org/1999/xlink" x="0px" y="0px"
	 viewBox="0 0 100 31" enable-background="new 0 0 100 31" xml:space="preserve">
<g>
	<path fill="#58595B" d="M37.9,22.9c0-1.3-0.2-2.4-0.7-3.1c-0.5-0.8-1-1.3-1.6-1.5c-0.6-0.3-1.2-0.4-1.8-0.4c-0.4,0-0.9,0.1-1.3,0.2
		c-0.5,0.1-0.9,0.4-1.3,0.8c-0.4,0.4-0.8,0.9-1.1,1.6c-0.3,0.7-0.4,1.5-0.4,2.5c0,0.9,0.1,1.6,0.3,2.3c0.2,0.6,0.5,1.2,1,1.6
		c0.4,0.4,0.8,0.7,1.3,0.9c0.5,0.2,1,0.3,1.5,0.3c0.5,0,0.9-0.1,1.4-0.2c0.5-0.2,0.9-0.4,1.3-0.8c0.4-0.4,0.7-0.9,1-1.5
		C37.8,24.6,37.9,23.8,37.9,22.9z M12.8,27.4c-4.8-1.5-8-2.3-9.8-2.3c-1.8,0-2.7,0.4-2.7,1.2c0,1.1,2.1,1.6,6.3,1.6
		C8.9,27.9,11,27.7,12.8,27.4z M39.5,2.4c0-0.3-0.2-0.4-0.5-0.4c-1,0-2.4,1-4.2,3.1c-1.6,1.8-3.3,4.8-5.2,8.9
		c2.3-1.9,4.6-4.1,6.7-6.6C38.4,4.9,39.5,3.2,39.5,2.4z M39.1,22.9c0,0.9-0.2,1.8-0.7,2.6c-0.5,0.8-1.1,1.5-1.9,1.9
		c-0.8,0.5-1.7,0.7-2.7,0.7l-0.2,0c-0.2,0.2-0.5,0.5-1,0.8c-1.3,0.9-3.3,1.4-5.8,1.4c-1.9,0-3.7-0.2-5.4-0.5
		c-1.7-0.4-4.4-1.1-7.9-2.2c-2.3,0.5-4.6,0.7-7,0.7c-4.3,0-6.4-0.7-6.4-2c0-1.2,1.6-1.8,4.9-1.8c2.5,0,6.3,0.7,11.4,2
		c1.5-0.6,2.8-1.5,4-2.6c1.2-1.2,2.6-3.1,4.4-5.8c-4.1,3.6-7.9,5.3-11.4,5.3c-2.4,0-4.3-0.7-5.8-2.1c-1.4-1.4-2.1-3.3-2.1-5.8
		c0-3.7,1.7-7.2,5.2-10.5c3.5-3.3,7.2-5,11.1-5c1.8,0,3.2,0.5,4.3,1.4c1.1,0.9,1.6,2.2,1.6,3.8c0,2.8-1.3,5.7-3.9,8.7
		s-5.2,4.5-7.6,4.5c-1,0-1.9-0.3-2.6-1c-0.7-0.7-1.1-1.5-1.1-2.4c0-0.7,0.2-1.4,0.7-1.9c0.5-0.5,1-0.8,1.6-0.8
		c0.8,0,1.3,0.4,1.3,1.3c0,0.4-0.2,0.9-0.5,1.2c-0.3,0.3-0.7,0.5-1.1,0.5c-0.7,0-1-0.3-1-0.9c0-0.4,0-0.6-0.1-0.6
		c-0.3,0-0.5,0.4-0.5,1.3c0,0.9,0.3,1.6,1,2.2c0.7,0.6,1.5,0.9,2.4,0.9c2.3,0,4.7-1.5,7.2-4.4c2.6-2.9,3.8-5.7,3.8-8.3
		c0-1.4-0.5-2.6-1.5-3.5c-1-0.9-2.2-1.4-3.7-1.4c-3.6,0-7.1,1.8-10.4,5.4c-3.3,3.6-5,7.4-5,11.3c0,1.8,0.6,3.3,1.8,4.3
		c1.2,1.1,2.8,1.6,4.9,1.6c1.8,0,3.5-0.4,5.3-1.3c1.8-0.9,3.9-2.4,6.5-4.6c2.1-3.6,3.7-6.1,4.7-7.5c0.9-1.3,2-2.7,3.3-4.1
		c2.5-2.6,4.5-4,5.8-4c0.6,0,0.8,0.2,0.8,0.7c0,1-1.2,2.8-3.6,5.6c-2.4,2.8-4.7,5-6.9,6.6c-1.7,3.7-3.5,6.5-5.3,8.2
		c-1.8,1.7-4.3,3-7.4,3.8c5.4,1.4,8.7,2.3,9.8,2.5c1.1,0.2,2.1,0.4,3.1,0.4c1.3,0,2.5-0.4,3.6-1.3c-0.7-0.1-1.4-0.3-2-0.7
		c-0.8-0.5-1.5-1.1-1.9-1.9c-0.5-0.8-0.7-1.7-0.7-2.7c0-0.7,0.1-1.4,0.4-2.1c0.3-0.7,0.7-1.2,1.2-1.7c0.5-0.5,1.1-0.9,1.7-1.1
		c0.6-0.3,1.3-0.4,2-0.4c0.7,0,1.3,0.1,2,0.4c0.6,0.3,1.2,0.6,1.7,1.1c0.5,0.5,0.9,1,1.2,1.7C39,21.4,39.1,22.1,39.1,22.9z
		 M49.3,17.8c-0.3,0.1-0.5,0.2-0.6,0.4c-0.2,0.1-0.3,0.3-0.4,0.6c-0.1,0.2-0.3,0.5-0.4,0.9l-3,8.5l-3.5-9c-0.2-0.5-0.3-0.8-0.6-0.9
		c-0.2-0.2-0.5-0.3-0.8-0.3l3.3-0.1C43,18,42.8,18,42.6,18.1c-0.2,0.1-0.3,0.3-0.3,0.6c0,0.1,0,0.3,0.1,0.5l2.7,7.2l2.3-6.6
		c0.2-0.4,0.2-0.8,0.2-1c0-0.4-0.1-0.6-0.2-0.7c-0.2-0.1-0.4-0.2-0.7-0.2L49.3,17.8z M50,17.9l6-0.1v1.6c-0.1-0.8-0.7-1.3-1.8-1.3
		h-2.1v4.6h1.8c0.4,0,0.7-0.1,1-0.2c0.3-0.1,0.5-0.4,0.5-0.8l0.1,2.3c-0.1-0.3-0.2-0.5-0.3-0.6c-0.1-0.1-0.2-0.2-0.3-0.3
		c-0.1,0-0.2-0.1-0.3-0.1c-0.2,0-0.3,0-0.5,0h-1.9v3.6c0,0.3,0,0.5,0.2,0.7c0.1,0.2,0.3,0.3,0.7,0.3h1.5c0.4,0,0.7-0.1,0.9-0.2
		c0.2-0.1,0.4-0.3,0.5-0.4c0.1-0.2,0.3-0.4,0.3-0.7L56,27.9h-6c0.4-0.1,0.6-0.2,0.8-0.4c0.2-0.2,0.3-0.5,0.3-0.8v-7.6
		c0-0.3-0.1-0.6-0.2-0.8c-0.1-0.2-0.4-0.3-0.7-0.3H50z M71.1,21.3c-0.3,0.1-0.6,0.2-0.8,0.3c-0.2,0.1-0.4,0.3-0.6,0.6
		c-0.2,0.3-0.3,0.6-0.5,1.1c-0.2,0.5-0.4,0.9-0.5,1.2c-0.1,0.3-0.3,0.5-0.4,0.7c-0.1,0.2-0.2,0.3-0.3,0.5l0.5,0.5l0.8,0.7
		c0.5,0.4,0.9,0.7,1.2,0.8c0.3,0.1,0.6,0.2,0.8,0.2l-2.1,0.1c-0.8-0.6-1.4-1.1-1.8-1.5c-0.3,0.3-0.7,0.7-1.2,1.1
		c-0.5,0.4-1.2,0.6-1.9,0.6c-0.4,0-0.7-0.1-1.1-0.2c-0.3-0.1-0.6-0.3-0.9-0.6c-0.3-0.3-0.4-0.5-0.6-0.8c-0.1-0.3-0.2-0.6-0.2-1
		c0-0.6,0.2-1.2,0.6-1.7c0.4-0.5,0.9-1,1.4-1.3c-0.5-0.6-0.8-1-1.1-1.4c-0.2-0.4-0.3-0.8-0.3-1.2c0-0.4,0.1-0.8,0.3-1.2
		c0.2-0.4,0.5-0.7,0.9-0.9c0.4-0.2,0.8-0.3,1.3-0.3c0.6,0,1.2,0.2,1.5,0.5c0.4,0.4,0.6,0.8,0.6,1.3c0,0.6-0.2,1.1-0.7,1.5
		c-0.4,0.4-1,0.9-1.6,1.3c0.2,0.3,0.6,0.7,1.1,1.2l1,1c0.4,0.4,0.7,0.7,1,1c0.2-0.4,0.5-0.9,0.8-1.6c0.3-0.7,0.4-1.2,0.4-1.7
		c0-0.3-0.1-0.5-0.2-0.6c-0.1-0.1-0.3-0.1-0.6-0.1L71.1,21.3z M64.6,21.9c0.5-0.3,0.9-0.6,1.2-1c0.3-0.3,0.5-0.8,0.5-1.3
		c0-0.3-0.1-0.6-0.2-0.8c-0.1-0.3-0.3-0.5-0.6-0.7c-0.3-0.2-0.6-0.3-0.9-0.3c-0.5,0-0.8,0.1-1,0.4c-0.2,0.3-0.4,0.6-0.4,1
		c0,0.3,0.1,0.5,0.2,0.9c0.1,0.3,0.3,0.6,0.6,0.9C64.1,21.4,64.4,21.7,64.6,21.9z M64,22.7c-0.9,0.6-1.4,1.4-1.4,2.2
		c0,0.4,0.1,0.8,0.4,1.2c0.2,0.4,0.6,0.7,0.9,0.9c0.4,0.2,0.8,0.3,1.2,0.3c0.3,0,0.7-0.1,0.9-0.2c0.3-0.1,0.5-0.3,0.7-0.4
		c0.2-0.2,0.4-0.3,0.6-0.5l-0.9-0.9l-0.7-0.7L65,23.9L64,22.7z M85.8,20.1c-0.2-0.5-0.4-0.9-0.8-1.3c-0.4-0.3-0.8-0.6-1.3-0.7
		c-0.5-0.2-0.9-0.2-1.4-0.2c-0.6,0-1.1,0.1-1.6,0.4c-0.5,0.2-0.9,0.6-1.3,1c-0.4,0.4-0.7,1-0.9,1.6c-0.2,0.6-0.3,1.3-0.3,2
		c0,0.7,0.1,1.4,0.3,2c0.2,0.6,0.5,1.1,0.9,1.6c0.4,0.4,0.8,0.8,1.3,1c0.5,0.2,1.1,0.3,1.7,0.3c0.5,0,1.1-0.1,1.7-0.3
		c0.6-0.2,1.2-0.6,1.7-1v0.4c-0.6,0.5-1.2,0.8-1.7,1c-0.5,0.2-1.1,0.3-1.9,0.3c-0.8,0-1.5-0.1-2.2-0.4c-0.7-0.3-1.2-0.7-1.7-1.2
		c-0.5-0.5-0.8-1-1-1.7c-0.2-0.6-0.3-1.2-0.3-1.9c0-1,0.2-1.9,0.7-2.7c0.5-0.8,1.1-1.5,2-2c0.8-0.5,1.7-0.7,2.7-0.7
		c0.6,0,1.2,0.1,1.9,0.3l0.7,0.2c0.1,0,0.3,0,0.3,0c0.2,0,0.3,0,0.4-0.1c0.1-0.1,0.1-0.2,0.1-0.3L85.8,20.1z M97.6,22.9
		c0,0.9-0.2,1.8-0.7,2.6c-0.5,0.8-1.1,1.5-1.9,1.9c-0.8,0.5-1.7,0.7-2.7,0.7c-1,0-1.9-0.2-2.7-0.7c-0.8-0.5-1.5-1.1-1.9-1.9
		c-0.5-0.8-0.7-1.7-0.7-2.7c0-0.7,0.1-1.4,0.4-2.1c0.3-0.7,0.7-1.2,1.2-1.7c0.5-0.5,1.1-0.9,1.7-1.1c0.6-0.3,1.3-0.4,2-0.4
		c0.7,0,1.3,0.1,2,0.4c0.6,0.3,1.2,0.6,1.7,1.1c0.5,0.5,0.9,1,1.2,1.7C97.5,21.4,97.6,22.1,97.6,22.9z M96.4,22.9
		c0-1.3-0.2-2.4-0.7-3.1c-0.5-0.8-1-1.3-1.6-1.5c-0.6-0.3-1.2-0.4-1.8-0.4c-0.4,0-0.9,0.1-1.3,0.2c-0.5,0.1-0.9,0.4-1.3,0.8
		c-0.4,0.4-0.8,0.9-1.1,1.6c-0.3,0.7-0.4,1.5-0.4,2.5c0,0.9,0.1,1.6,0.3,2.3c0.2,0.6,0.5,1.2,0.9,1.6c0.4,0.4,0.9,0.7,1.3,0.9
		c0.5,0.2,1,0.3,1.5,0.3c0.5,0,0.9-0.1,1.4-0.2c0.5-0.2,0.9-0.4,1.3-0.8c0.4-0.4,0.7-0.9,1-1.5C96.3,24.6,96.4,23.8,96.4,22.9z
		 M99.4,28.2c-0.2,0-0.3-0.1-0.4-0.2c-0.1-0.1-0.2-0.3-0.2-0.4c0-0.2,0.1-0.3,0.2-0.4c0.1-0.1,0.3-0.2,0.4-0.2
		c0.2,0,0.3,0.1,0.5,0.2c0.1,0.1,0.2,0.3,0.2,0.5c0,0.2-0.1,0.3-0.2,0.4C99.7,28.1,99.5,28.2,99.4,28.2z"/>
</g>
</svg>
