
<svg version="1.1" xmlns="http://www.w3.org/2000/svg" xmlns:xlink="http://www.w3.org/1999/xlink" x="0px" y="0px"
	 viewBox="0 0 60 28" style="enable-background:new 0 0 60 28;" xml:space="preserve">
<g>
	<path d="M54.7,21h-3.2c-1.4,0-2-0.1-2.3-0.6c-0.2-0.3-0.1-0.8,0.2-2.3l0.8-3.3h-0.8l0.3-0.7h0.6l0.6-2.3c0.3-1.3,0.6-2,1.7-2.7
		c0.6-0.4,1.2-0.6,2.5-0.6h2.5l-0.3,1c0,0-1.6,0-2.3,0c-0.8,0-1.1,0.2-1.3,0.3c-0.1,0.1-0.5,0.6-0.6,1.2l-0.8,3h3.4l-0.3,0.7h-3.3
		l-1,3.9c-0.2,0.9-0.1,1-0.1,1.1c0.1,0.2,0.4,0.2,0.9,0.2c0.7,0,2.8,0,2.8,0L54.7,21z"/>
	<path d="M43.6,8.5c-0.5,0.1-1.1,0.4-1.1,0.4l0.1-0.4h-1.9L37.5,21h2l2.7-10.3c0.3-1.2,1.5-1.6,2.2-1.6c0.7,0,1.7,0.4,1.4,1.6
		L43.2,21h2l2.6-10c0.5-2-1.2-2.6-3.2-2.6C44.3,8.4,43.9,8.5,43.6,8.5"/>
	<path d="M35.5,8.5L32.2,21h2l3.3-12.5H35.5z"/>
	<path d="M27.2,18.5c0.4,0.7,0.5,1.7,0.3,2.5h1.9c0.2-0.8,0.1-1.9-0.5-2.9c-0.5-0.8-1.1-1.4-1.8-1.9c1.3-0.4,4.2-1.6,4.9-4.1
		c0.8-3-2.2-3.7-4.9-3.7h-1.6L22.3,21h2l1.1-4.4C26.1,17,26.8,17.7,27.2,18.5L27.2,18.5z M27.4,9.2c1.4,0,3.2,0.4,2.5,2.9
		c-0.7,2.6-3.5,3.5-4.2,3.7L27.4,9.2L27.4,9.2z"/>
	<path d="M14.1,11l-1.3,4.8H12l-0.2,0.7h0.8L11.5,21h2l1.1-4.4h3.6L17.2,21h2l2.6-10c0.5-2-1.2-2.6-3.2-2.6C16.7,8.4,14.6,9,14.1,11
		L14.1,11z M19.8,10.7l-1.3,5.2h-3.6l1.3-5.2c0.3-1.2,1.5-1.6,2.2-1.6C19.2,9.1,20.2,9.5,19.8,10.7L19.8,10.7z"/>
	<path d="M39.7,2.9c-0.3,0.5-0.9,0.9-1.6,0.9c-0.8,0-1.5-0.5-1.8-1.2c-3.3-0.3-6.3-0.3-8.6-0.2c-7.1,0.5-13,2.2-17.2,4.8
		c-1.8,1.3-3.1,2.7-3.4,4c-0.4,1.6-0.1,2.7,0.7,4.1c0.8,1.4,1.4,3.2,1.1,4.5c-0.8,3.5-4.3,6-7.7,7.8l-1.3-1c2.8-1.5,5.3-3.7,5.9-6.1
		c0.3-1.3-0.3-2.8-1.1-4.4c-0.8-1.5-1-2.6-0.6-4.4c0.5-2.2,2.8-4.1,5.1-5.6c4.1-2.9,10-5,17.1-5.4c3-0.2,6.5-0.1,10.1,0.3
		c0.3-0.6,1-1.1,1.7-1.1C39,0,39.8,0.7,40,1.6c8.3,1.2,16.6,3.7,20,6.9C56.3,5.8,47.6,3.9,39.7,2.9z"/>
</g>
</svg>
